<svg xmlns="http://www.w3.org/2000/svg" width="640" height="220" viewBox="0 0 640 220" role="img" font-family="ui-sans-serif,system-ui,Segoe UI,Helvetica,Arial,sans-serif">

<text x="16" y="26" font-size="15" font-weight="600" fill="#111827">Correct-answer distribution (A-D)</text>
<text x="50" y="66.0" text-anchor="end" font-size="14" fill="#111827">A</text>
<rect x="60" y="44" width="484" height="34" rx="6" fill="#e5e7eb"/>
<rect x="60" y="44" width="197.7" height="34" rx="6" fill="#f97316"/>
<text x="552" y="66.0" font-size="13" fill="#374151">723 (14.5%)</text>
<text x="50" y="110.0" text-anchor="end" font-size="14" fill="#111827">B</text>
<rect x="60" y="88" width="484" height="34" rx="6" fill="#e5e7eb"/>
<rect x="60" y="88" width="478.5" height="34" rx="6" fill="#2563eb"/>
<text x="552" y="110.0" font-size="13" fill="#374151">1,750 (35.0%)</text>
<text x="50" y="154.0" text-anchor="end" font-size="14" fill="#111827">C</text>
<rect x="60" y="132" width="484" height="34" rx="6" fill="#e5e7eb"/>
<rect x="60" y="132" width="484.0" height="34" rx="6" fill="#10b981"/>
<text x="552" y="154.0" font-size="13" fill="#374151">1,770 (35.4%)</text>
<text x="50" y="198.0" text-anchor="end" font-size="14" fill="#111827">D</text>
<rect x="60" y="176" width="484" height="34" rx="6" fill="#e5e7eb"/>
<rect x="60" y="176" width="207.0" height="34" rx="6" fill="#f59e0b"/>
<text x="552" y="198.0" font-size="13" fill="#374151">757 (15.1%)</text>
</svg>