<svg xmlns="http://www.w3.org/2000/svg" width="720" height="286" viewBox="0 0 720 286" role="img" font-family="ui-sans-serif,system-ui,Segoe UI,Helvetica,Arial,sans-serif">

<text x="16" y="26" font-size="15" font-weight="600" fill="#111827">Questions per subject</text>
<text x="150" y="66.0" text-anchor="end" font-size="13.5" fill="#111827">Physics</text>
<rect x="160" y="46" width="464" height="30" rx="6" fill="#e5e7eb"/>
<rect x="160" y="46" width="463.4" height="30" rx="6" fill="#ef4444"/>
<text x="632" y="66.0" font-size="13" fill="#374151">833 (16.7%)</text>
<text x="150" y="106.0" text-anchor="end" font-size="13.5" fill="#111827">History</text>
<rect x="160" y="86" width="464" height="30" rx="6" fill="#e5e7eb"/>
<rect x="160" y="86" width="463.4" height="30" rx="6" fill="#f59e0b"/>
<text x="632" y="106.0" font-size="13" fill="#374151">833 (16.7%)</text>
<text x="150" y="146.0" text-anchor="end" font-size="13.5" fill="#111827">Geography</text>
<rect x="160" y="126" width="464" height="30" rx="6" fill="#e5e7eb"/>
<rect x="160" y="126" width="464.0" height="30" rx="6" fill="#0ea5e9"/>
<text x="632" y="146.0" font-size="13" fill="#374151">834 (16.7%)</text>
<text x="150" y="186.0" text-anchor="end" font-size="13.5" fill="#111827">Biology</text>
<rect x="160" y="166" width="464" height="30" rx="6" fill="#e5e7eb"/>
<rect x="160" y="166" width="463.4" height="30" rx="6" fill="#10b981"/>
<text x="632" y="186.0" font-size="13" fill="#374151">833 (16.7%)</text>
<text x="150" y="226.0" text-anchor="end" font-size="13.5" fill="#111827">Astronomy</text>
<rect x="160" y="206" width="464" height="30" rx="6" fill="#e5e7eb"/>
<rect x="160" y="206" width="464.0" height="30" rx="6" fill="#6366f1"/>
<text x="632" y="226.0" font-size="13" fill="#374151">834 (16.7%)</text>
<text x="150" y="266.0" text-anchor="end" font-size="13.5" fill="#111827">Computer Science</text>
<rect x="160" y="246" width="464" height="30" rx="6" fill="#e5e7eb"/>
<rect x="160" y="246" width="463.4" height="30" rx="6" fill="#8b5cf6"/>
<text x="632" y="266.0" font-size="13" fill="#374151">833 (16.7%)</text>
</svg>